HIERARCHY
ROOT Hips
{
	OFFSET 0.000000 0.000000 0.000000
	CHANNELS 6 Xposition Yposition Zposition Xrotation Yrotation Zrotation
	JOINT Spine
	{
		OFFSET 0.000000 0.053497 0.080245
		CHANNELS 3 Xrotation Yrotation Zrotation
		JOINT Spine1
		{
			OFFSET 0.000000 0.018579 0.105368
			CHANNELS 3 Xrotation Yrotation Zrotation
			JOINT Spine2
			{
				OFFSET 0.000000 0.009325 0.106586
				CHANNELS 3 Xrotation Yrotation Zrotation
				JOINT Spine3
				{
					OFFSET 0.000000 0.000000 0.106993
					CHANNELS 3 Xrotation Yrotation Zrotation
					JOINT Neck
					{
						OFFSET 0.000000 -0.040122 0.280858
						CHANNELS 3 Xrotation Yrotation Zrotation
						JOINT Head
						{
							OFFSET 0.000000 -0.025546 0.144881
							CHANNELS 3 Xrotation Yrotation Zrotation
							End Site
							{
								OFFSET 0.000000 0.000000 0.000000
							}
						}
					}
					JOINT RightShoulder
					{
						OFFSET -0.032541 -0.054234 0.175720
						CHANNELS 3 Xrotation Yrotation Zrotation
						JOINT RightArm
						{
							OFFSET -0.161619 0.000000 0.000000
							CHANNELS 3 Xrotation Yrotation Zrotation
							JOINT RightForeArm
							{
								OFFSET -0.257104 0.000000 0.000000
								CHANNELS 3 Xrotation Yrotation Zrotation
								JOINT RightHand
								{
									OFFSET -0.273485 0.000000 0.000000
									CHANNELS 3 Xrotation Yrotation Zrotation
									JOINT RightHandEnd
									{
										OFFSET -0.070844 0.000000 0.000000
										CHANNELS 3 Xrotation Yrotation Zrotation
										End Site
										{
											OFFSET 0.000000 0.000000 0.000000
										}
									}
									JOINT RightHandThumb1
									{
										OFFSET -0.028338 -0.047230 -0.018892
										CHANNELS 3 Xrotation Yrotation Zrotation
										End Site
										{
											OFFSET 0.000000 0.000000 0.000000
										}
									}
								}
							}
						}
					}
					JOINT LeftShoulder
					{
						OFFSET 0.032541 -0.054234 0.175720
						CHANNELS 3 Xrotation Yrotation Zrotation
						JOINT LeftArm
						{
							OFFSET 0.161619 0.000000 0.000000
							CHANNELS 3 Xrotation Yrotation Zrotation
							JOINT LeftForeArm
							{
								OFFSET 0.257104 0.000000 0.000000
								CHANNELS 3 Xrotation Yrotation Zrotation
								JOINT LeftHand
								{
									OFFSET 0.273485 0.000000 0.000000
									CHANNELS 3 Xrotation Yrotation Zrotation
									JOINT LeftHandEnd
									{
										OFFSET 0.070844 0.000000 0.000000
										CHANNELS 3 Xrotation Yrotation Zrotation
										End Site
										{
											OFFSET 0.000000 0.000000 0.000000
										}
									}
									JOINT LeftHandThumb1
									{
										OFFSET 0.028338 -0.047230 -0.018892
										CHANNELS 3 Xrotation Yrotation Zrotation
										End Site
										{
											OFFSET 0.000000 0.000000 0.000000
										}
									}
								}
							}
						}
					}
				}
			}
		}
	}
	JOINT RightUpLeg
	{
		OFFSET -0.096537 0.000000 -0.028202
		CHANNELS 3 Xrotation Yrotation Zrotation
		JOINT RightLeg
		{
			OFFSET 0.000000 0.000000 -0.431842
			CHANNELS 3 Xrotation Yrotation Zrotation
			JOINT RightFoot
			{
				OFFSET 0.000000 0.000000 -0.456398
				CHANNELS 3 Xrotation Yrotation Zrotation
				JOINT RightToeBase
				{
					OFFSET 0.000000 -0.128905 -0.046918
					CHANNELS 3 Xrotation Yrotation Zrotation
					End Site
					{
						OFFSET 0.000000 0.000000 0.000000
					}
				}
			}
		}
	}
	JOINT LeftUpLeg
	{
		OFFSET 0.096537 0.000000 -0.028202
		CHANNELS 3 Xrotation Yrotation Zrotation
		JOINT LeftLeg
		{
			OFFSET 0.000000 0.000000 -0.431842
			CHANNELS 3 Xrotation Yrotation Zrotation
			JOINT LeftFoot
			{
				OFFSET 0.000000 0.000000 -0.456398
				CHANNELS 3 Xrotation Yrotation Zrotation
				JOINT LeftToeBase
				{
					OFFSET 0.000000 -0.128905 -0.046918
					CHANNELS 3 Xrotation Yrotation Zrotation
					End Site
					{
						OFFSET 0.000000 0.000000 0.000000
					}
				}
			}
		}
	}
}
MOTION
Frames: 14
Frame Time: 0.033333
0.022055 -1.754937 0.969361 -2.184800 -1.056800 177.955100 -1.490200 0.450000 0.317600 -0.554700 -0.480700 0.002700 2.719100 -1.439000 0.463700 0.126800 -0.379200 0.826500 -2.899600 2.119700 -0.755400 0.183400 -0.544900 -0.667000 -7.100400 13.547200 3.941000 12.666500 -23.730700 -13.590300 0.000000 0.000000 14.298500 5.026300 3.539200 -1.191400 0.000000 0.000000 0.000000 0.000000 0.000000 0.000000 -9.351000 -12.702800 -3.534200 1.948900 25.551400 17.623300 0.000000 0.000000 -10.595400 -1.853100 -5.910000 3.729600 0.000000 0.000000 0.000000 0.000000 0.000000 0.000000 -4.183200 2.748100 -21.942600 6.428600 0.000000 0.000000 -1.847700 -9.192500 0.171500 -0.216600 0.000000 0.000000 -2.192000 -2.811500 21.764700 4.777700 0.000000 0.000000 -8.152300 20.879600 3.721600 13.015100 0.000000 0.000000 
0.022156 -1.754983 0.969338 -2.214100 -1.057700 178.027200 -1.498200 0.464600 0.312900 -0.559600 -0.464500 0.004900 2.731200 -1.452300 0.444000 0.125100 -0.385400 0.829600 -2.948500 2.163900 -0.770300 0.173800 -0.585400 -0.713000 -7.120600 13.413500 3.899000 12.349700 -23.575100 -13.719900 0.000000 0.000000 14.332600 4.574100 3.208200 -1.476100 0.000000 0.000000 0.000000 0.000000 0.000000 0.000000 -9.356100 -12.579200 -3.594800 2.247100 25.494100 17.451700 0.000000 0.000000 -10.622300 -1.539100 -5.917500 3.846100 0.000000 0.000000 0.000000 0.000000 0.000000 0.000000 -4.228200 2.747500 -21.906100 6.472300 0.000000 0.000000 -1.890300 -9.180600 0.066900 -0.223900 0.000000 0.000000 -2.239900 -2.818300 21.687700 4.784000 0.000000 0.000000 -8.149900 20.894600 3.725600 13.021600 0.000000 0.000000 
0.022365 -1.754904 0.969302 -2.225600 -1.061100 178.171400 -1.489300 0.498800 0.305900 -0.556200 -0.439200 0.002500 2.745200 -1.473000 0.400700 0.124700 -0.390300 0.826300 -2.990100 2.219800 -0.809100 0.121000 -0.654800 -0.788200 -7.135100 13.171400 3.820100 12.083600 -23.338400 -13.788100 0.000000 0.000000 14.263800 4.205500 2.889200 -1.814200 0.000000 0.000000 0.000000 0.000000 0.000000 0.000000 -9.356000 -12.399100 -3.695800 2.461100 25.363700 17.282800 0.000000 0.000000 -10.643800 -1.181000 -5.889700 4.026300 0.000000 0.000000 0.000000 0.000000 0.000000 0.000000 -4.248200 2.746100 -21.912100 6.538900 0.000000 0.000000 -1.964100 -9.165100 -0.067400 -0.230800 0.000000 0.000000 -2.267900 -2.828900 21.560900 4.777800 0.000000 0.000000 -8.129400 20.924900 3.707700 13.015200 0.000000 0.000000 
0.022621 -1.754640 0.969277 -2.222600 -1.067100 178.344400 -1.488100 0.537000 0.297100 -0.554900 -0.405700 0.001000 2.768300 -1.495800 0.333400 0.127400 -0.389900 0.816600 -2.951500 2.258900 -0.874700 0.022400 -0.714400 -0.878000 -7.145400 12.891900 3.760600 12.037800 -23.086900 -13.785800 0.000000 0.000000 14.077000 4.246700 2.761600 -1.990700 0.000000 0.000000 0.000000 0.000000 0.000000 0.000000 -9.364300 -12.198100 -3.798300 2.321900 25.125700 17.290900 0.000000 0.000000 -10.695500 -1.076600 -5.697400 4.232500 0.000000 0.000000 0.000000 0.000000 0.000000 0.000000 -4.236700 2.742800 -21.980000 6.604100 0.000000 0.000000 -2.044500 -9.150100 -0.173300 -0.230000 0.000000 0.000000 -2.262000 -2.840000 21.443300 4.748400 0.000000 0.000000 -8.087200 20.958100 3.652800 12.999300 0.000000 0.000000 
0.022852 -1.754114 0.969279 -2.177700 -1.073500 178.497200 -1.481100 0.567300 0.291400 -0.556500 -0.382500 0.000500 2.795600 -1.498400 0.261100 0.135700 -0.379400 0.797300 -2.798300 2.283500 -0.973700 -0.113800 -0.751400 -1.002800 -7.170500 12.627700 3.764500 12.011100 -22.831700 -13.869100 0.000000 0.000000 13.894100 4.431600 2.697800 -2.062200 0.000000 0.000000 0.000000 0.000000 0.000000 0.000000 -9.385200 -11.985900 -3.852800 2.036400 24.819600 17.385600 0.000000 0.000000 -10.820600 -1.226200 -5.385200 4.391400 0.000000 0.000000 0.000000 0.000000 0.000000 0.000000 -4.148500 2.734200 -22.064000 6.629500 0.000000 0.000000 -2.113500 -9.139500 -0.246900 -0.223500 0.000000 0.000000 -2.159000 -2.840200 21.424300 4.653800 0.000000 0.000000 -8.003700 20.996700 3.520800 12.986600 0.000000 0.000000 
0.023061 -1.753469 0.969292 -2.146800 -1.076400 178.621600 -1.505100 0.587000 0.290600 -0.581500 -0.375000 -0.002900 2.840500 -1.470100 0.204600 0.152100 -0.354900 0.759700 -2.582300 2.332200 -1.122300 -0.241900 -0.819600 -1.213400 -7.219200 12.374700 3.794100 11.812400 -22.565300 -14.063600 0.000000 0.000000 13.791900 4.344400 2.509800 -2.227500 0.000000 0.000000 0.000000 0.000000 0.000000 0.000000 -9.420100 -11.752800 -3.837000 2.086800 24.536700 17.284600 0.000000 0.000000 -10.987400 -1.360700 -5.162500 4.434900 0.000000 0.000000 0.000000 0.000000 0.000000 0.000000 -4.053400 2.720400 -22.111700 6.619500 0.000000 0.000000 -2.173000 -9.130300 -0.331300 -0.221500 0.000000 0.000000 -2.033000 -2.830400 21.503000 4.509900 0.000000 0.000000 -7.879200 21.039900 3.317500 12.976800 0.000000 0.000000 
0.023251 -1.752740 0.969317 -2.134100 -1.071500 178.724500 -1.559900 0.602500 0.289000 -0.622800 -0.373000 -0.005000 2.901600 -1.420900 0.163300 0.175100 -0.316900 0.710600 -2.352300 2.435400 -1.326000 -0.333300 -0.967100 -1.534800 -7.290500 12.127000 3.821400 11.620200 -22.331500 -14.223400 0.000000 0.000000 13.704200 4.067700 2.221200 -2.477000 0.000000 0.000000 0.000000 0.000000 0.000000 0.000000 -9.470600 -11.523200 -3.789800 2.566900 24.316100 16.940100 0.000000 0.000000 -11.125900 -1.347200 -5.020100 4.407200 0.000000 0.000000 0.000000 0.000000 0.000000 0.000000 -3.962700 2.709400 -22.161000 6.584800 0.000000 0.000000 -2.222000 -9.121700 -0.395800 -0.226700 0.000000 0.000000 -1.896700 -2.803000 21.599900 4.318100 0.000000 0.000000 -7.724300 21.074700 3.115100 12.957500 0.000000 0.000000 
0.023416 -1.751896 0.969355 -2.113300 -1.051800 178.799200 -1.622300 0.630300 0.280800 -0.671100 -0.362400 -0.006800 2.972400 -1.385400 0.139400 0.200000 -0.273400 0.664200 -2.121600 2.595800 -1.561100 -0.384100 -1.169600 -1.934700 -7.369900 11.923000 3.852500 11.563900 -22.175600 -14.276900 0.000000 0.000000 13.550000 3.960700 1.979000 -2.637700 0.000000 0.000000 0.000000 0.000000 0.000000 0.000000 -9.522900 -11.347000 -3.741500 3.041000 24.122900 16.571200 0.000000 0.000000 -11.191500 -1.372300 -4.693200 4.466500 0.000000 0.000000 0.000000 0.000000 0.000000 0.000000 -3.863800 2.717100 -22.242000 6.556900 0.000000 0.000000 -2.268100 -9.109700 -0.402800 -0.231500 0.000000 0.000000 -1.703900 -2.741800 21.659500 4.042300 0.000000 0.000000 -7.541900 21.097400 2.974800 12.929500 0.000000 0.000000 
0.023571 -1.751025 0.969399 -2.102400 -1.019600 178.840000 -1.692400 0.678100 0.262200 -0.722800 -0.328800 -0.007800 3.030600 -1.396700 0.122100 0.222800 -0.238100 0.639800 -1.895000 2.799500 -1.796000 -0.402600 -1.357500 -2.358100 -7.472900 11.777900 3.914500 11.319600 -22.040600 -14.439900 0.000000 0.000000 13.435500 4.036200 1.829300 -2.689700 0.000000 0.000000 0.000000 0.000000 0.000000 0.000000 -9.578400 -11.248500 -3.723500 3.100000 23.927800 16.428100 0.000000 0.000000 -11.221200 -1.621100 -4.024800 4.706000 0.000000 0.000000 0.000000 0.000000 0.000000 0.000000 -3.811300 2.748100 -22.293800 6.595300 0.000000 0.000000 -2.338200 -9.085500 -0.403500 -0.225500 0.000000 0.000000 -1.470800 -2.651200 21.697700 3.674800 0.000000 0.000000 -7.336800 21.130300 2.888300 12.906300 0.000000 0.000000 
0.023802 -1.750207 0.969424 -2.103700 -0.988400 178.859200 -1.754700 0.743300 0.239200 -0.762600 -0.273300 -0.007500 3.047400 -1.453700 0.086000 0.239600 -0.217700 0.636500 -1.689200 3.028900 -2.023400 -0.412800 -1.492500 -2.767100 -7.603700 11.695400 3.987900 10.569300 -21.890600 -14.863500 0.000000 0.000000 13.538100 4.010500 1.764200 -2.766300 0.000000 0.000000 0.000000 0.000000 0.000000 0.000000 -9.638400 -11.259200 -3.741200 2.812200 23.799300 16.516800 0.000000 0.000000 -11.253500 -1.999200 -3.212600 5.040100 0.000000 0.000000 0.000000 0.000000 0.000000 0.000000 -3.819800 2.784900 -22.255300 6.718500 0.000000 0.000000 -2.449900 -9.050900 -0.468000 -0.214100 0.000000 0.000000 -1.234900 -2.563900 21.786100 3.282100 0.000000 0.000000 -7.125700 21.192400 2.779400 12.896300 0.000000 0.000000 
0.024183 -1.749433 0.969427 -2.086400 -0.976300 178.883700 -1.781300 0.812700 0.219800 -0.768600 -0.214200 -0.008400 3.014000 -1.520300 0.005600 0.247300 -0.206300 0.637800 -1.517800 3.259900 -2.262200 -0.436400 -1.584300 -3.150700 -7.733800 11.661900 4.027600 9.621500 -21.783100 -15.355500 0.000000 0.000000 13.862500 3.851900 1.772900 -2.875000 0.000000 0.000000 0.000000 0.000000 0.000000 0.000000 -9.693600 -11.411400 -3.777400 2.481400 23.808100 16.695000 0.000000 0.000000 -11.278400 -2.264600 -2.477000 5.332800 0.000000 0.000000 0.000000 0.000000 0.000000 0.000000 -3.825800 2.797000 -22.170800 6.872000 0.000000 0.000000 -2.579500 -9.017000 -0.580900 -0.210600 0.000000 0.000000 -1.034000 -2.525400 21.922400 3.001100 0.000000 0.000000 -6.965700 21.265100 2.631000 12.903300 0.000000 0.000000 
0.024714 -1.748643 0.969416 -2.003800 -0.985000 178.933600 -1.741500 0.877700 0.210300 -0.737700 -0.158600 -0.011600 2.952200 -1.578800 -0.120800 0.246900 -0.192000 0.629000 -1.377300 3.465800 -2.519000 -0.484100 -1.651000 -3.508900 -7.811500 11.645900 4.009800 9.062200 -21.771000 -15.601200 0.000000 0.000000 14.189700 3.786600 1.808800 -2.887400 0.000000 0.000000 0.000000 0.000000 0.000000 0.000000 -9.725000 -11.663700 -3.807900 2.222100 23.886500 16.864000 0.000000 0.000000 -11.270800 -2.340900 -1.786000 5.579400 0.000000 0.000000 0.000000 0.000000 0.000000 0.000000 -3.735300 2.773300 -22.131900 6.976100 0.000000 0.000000 -2.689000 -8.990900 -0.672700 -0.223000 0.000000 0.000000 -0.856800 -2.547400 22.017100 2.903000 0.000000 0.000000 -6.903200 21.320500 2.506700 12.923600 0.000000 0.000000 
0.025354 -1.747904 0.969404 -1.876100 -1.006800 179.015300 -1.661000 0.935000 0.205000 -0.687300 -0.110300 -0.009200 2.895800 -1.624600 -0.266400 0.241500 -0.174300 0.610100 -1.263100 3.615400 -2.769700 -0.553400 -1.699400 -3.834100 -7.837000 11.567600 3.973000 8.989600 -21.752800 -15.610200 0.000000 0.000000 14.326900 3.846700 1.809300 -2.809400 0.000000 0.000000 0.000000 0.000000 0.000000 0.000000 -9.720700 -11.898500 -3.825800 1.967100 23.886000 16.992100 0.000000 0.000000 -11.236600 -2.386900 -1.107400 5.841100 0.000000 0.000000 0.000000 0.000000 0.000000 0.000000 -3.556700 2.717100 -22.139300 6.998800 0.000000 0.000000 -2.767300 -8.968700 -0.749300 -0.239800 0.000000 0.000000 -0.714800 -2.614600 21.995200 2.953700 0.000000 0.000000 -6.931200 21.358600 2.462300 12.936000 0.000000 0.000000 
0.026063 -1.747363 0.969386 -1.775300 -1.031500 179.104900 -1.596600 0.980400 0.207300 -0.651500 -0.075000 -0.010900 2.870900 -1.650800 -0.376100 0.237700 -0.159100 0.591100 -1.187200 3.690800 -2.986300 -0.622500 -1.745800 -4.102800 -7.835900 11.401200 3.940100 9.017000 -21.629100 -15.604100 0.000000 0.000000 14.262700 3.796800 1.778900 -2.803500 0.000000 0.000000 0.000000 0.000000 0.000000 0.000000 -9.699400 -12.026000 -3.852100 1.746500 23.769400 17.047700 0.000000 0.000000 -11.215500 -2.571600 -0.603000 6.094100 0.000000 0.000000 0.000000 0.000000 0.000000 0.000000 -3.391300 2.642900 -22.135800 6.970200 0.000000 0.000000 -2.827400 -8.949100 -0.843800 -0.248700 0.000000 0.000000 -0.648700 -2.701600 21.879100 3.073800 0.000000 0.000000 -7.009300 21.381900 2.498200 12.924500 0.000000 0.000000 
